<svg id="visual" viewBox="0 0 960 540" width="960" height="540" xmlns="http://www.w3.org/2000/svg" xmlns:xlink="http://www.w3.org/1999/xlink" version="1.1"><rect x="0" y="0" width="960" height="540" fill="#ffffff"></rect><path d="M0 121L16 147.3C32 173.7 64 226.3 96 244.7C128 263 160 247 192 222.2C224 197.3 256 163.7 288 153.7C320 143.7 352 157.3 384 178.2C416 199 448 227 480 236.8C512 246.7 544 238.3 576 229.5C608 220.7 640 211.3 672 218.3C704 225.3 736 248.7 768 246.8C800 245 832 218 864 196.7C896 175.3 928 159.7 944 151.8L960 144L960 0L944 0C928 0 896 0 864 0C832 0 800 0 768 0C736 0 704 0 672 0C640 0 608 0 576 0C544 0 512 0 480 0C448 0 416 0 384 0C352 0 320 0 288 0C256 0 224 0 192 0C160 0 128 0 96 0C64 0 32 0 16 0L0 0Z" fill="#1ca7e3"></path></svg>