<svg id="visual" viewBox="0 0 960 540" width="960" height="540" xmlns="http://www.w3.org/2000/svg" xmlns:xlink="http://www.w3.org/1999/xlink" version="1.1"><rect x="0" y="0" width="960" height="540" fill="#36fdba"></rect><path d="M0 72L17.8 65.7C35.7 59.3 71.3 46.7 106.8 46.5C142.3 46.3 177.7 58.7 213.2 56.3C248.7 54 284.3 37 320 32.3C355.7 27.7 391.3 35.3 426.8 41.5C462.3 47.7 497.7 52.3 533.2 52.2C568.7 52 604.3 47 640 51.7C675.7 56.3 711.3 70.7 746.8 68.7C782.3 66.7 817.7 48.3 853.2 40.2C888.7 32 924.3 34 942.2 35L960 36L960 0L942.2 0C924.3 0 888.7 0 853.2 0C817.7 0 782.3 0 746.8 0C711.3 0 675.7 0 640 0C604.3 0 568.7 0 533.2 0C497.7 0 462.3 0 426.8 0C391.3 0 355.7 0 320 0C284.3 0 248.7 0 213.2 0C177.7 0 142.3 0 106.8 0C71.3 0 35.7 0 17.8 0L0 0Z" fill="#1ca7e3" stroke-linecap="round" stroke-linejoin="miter"></path></svg>