<svg id="visual" viewBox="0 0 960 540" width="960" height="540" xmlns="http://www.w3.org/2000/svg" xmlns:xlink="http://www.w3.org/1999/xlink" version="1.1"><path d="M0 336L10.7 339.2C21.3 342.3 42.7 348.7 64 303C85.3 257.3 106.7 159.7 128 132.8C149.3 106 170.7 150 192 143C213.3 136 234.7 78 256 82.8C277.3 87.7 298.7 155.3 320 189.3C341.3 223.3 362.7 223.7 384 242.5C405.3 261.3 426.7 298.7 448 278.2C469.3 257.7 490.7 179.3 512 160.3C533.3 141.3 554.7 181.7 576 203.5C597.3 225.3 618.7 228.7 640 241.5C661.3 254.3 682.7 276.7 704 244.2C725.3 211.7 746.7 124.3 768 99.3C789.3 74.3 810.7 111.7 832 143.7C853.3 175.7 874.7 202.3 896 205.8C917.3 209.3 938.7 189.7 949.3 179.8L960 170L960 0L949.3 0C938.7 0 917.3 0 896 0C874.7 0 853.3 0 832 0C810.7 0 789.3 0 768 0C746.7 0 725.3 0 704 0C682.7 0 661.3 0 640 0C618.7 0 597.3 0 576 0C554.7 0 533.3 0 512 0C490.7 0 469.3 0 448 0C426.7 0 405.3 0 384 0C362.7 0 341.3 0 320 0C298.7 0 277.3 0 256 0C234.7 0 213.3 0 192 0C170.7 0 149.3 0 128 0C106.7 0 85.3 0 64 0C42.7 0 21.3 0 10.7 0L0 0Z" fill="#1ca7e3" stroke-linecap="round" stroke-linejoin="miter"></path></svg>