<svg id="visual" viewBox="0 0 900 200" width="900" height="600" xmlns="http://www.w3.org/2000/svg" xmlns:xlink="http://www.w3.org/1999/xlink" version="1.1"><rect x="0" y="0" width="900" height="600" fill="#ffffff"></rect><path d="M0 388L129 413L257 413L386 443L514 450L643 399L771 452L900 453L900 601L771 601L643 601L514 601L386 601L257 601L129 601L0 601Z" fill="#009473"></path><path d="M0 421L129 429L257 486L386 454L514 462L643 438L771 446L900 439L900 601L771 601L643 601L514 601L386 601L257 601L129 601L0 601Z" fill="#04735a"></path><path d="M0 503L129 465L257 458L386 503L514 493L643 504L771 454L900 461L900 601L771 601L643 601L514 601L386 601L257 601L129 601L0 601Z" fill="#075342"></path><path d="M0 517L129 532L257 497L386 552L514 542L643 512L771 546L900 532L900 601L771 601L643 601L514 601L386 601L257 601L129 601L0 601Z" fill="#07352a"></path><path d="M0 569L129 555L257 537L386 549L514 562L643 541L771 573L900 556L900 601L771 601L643 601L514 601L386 601L257 601L129 601L0 601Z" fill="#011a14"></path></svg>