<svg id="visual" viewBox="0 0 960 520" width="960" height="520" xmlns="http://www.w3.org/2000/svg" xmlns:xlink="http://www.w3.org/1999/xlink" version="1.1"><path d="M0 505L17.8 499.3C35.7 493.7 71.3 482.3 106.8 480.7C142.3 479 177.7 487 213.2 495.5C248.7 504 284.3 513 320 505.5C355.7 498 391.3 474 426.8 471.5C462.3 469 497.7 488 533.2 496.7C568.7 505.3 604.3 503.7 640 501.3C675.7 499 711.3 496 746.8 495.8C782.3 495.7 817.7 498.3 853.2 501.7C888.7 505 924.3 509 942.2 511L960 513L960 541L942.2 541C924.3 541 888.7 541 853.2 541C817.7 541 782.3 541 746.8 541C711.3 541 675.7 541 640 541C604.3 541 568.7 541 533.2 541C497.7 541 462.3 541 426.8 541C391.3 541 355.7 541 320 541C284.3 541 248.7 541 213.2 541C177.7 541 142.3 541 106.8 541C71.3 541 35.7 541 17.8 541L0 541Z" fill="#1ca7e37b" stroke-linecap="round" stroke-linejoin="miter"></path></svg>