<svg id="visual" viewBox="0 0 960 540" width="960" height="540" xmlns="http://www.w3.org/2000/svg" xmlns:xlink="http://www.w3.org/1999/xlink" version="1.1"><g transform="translate(510.421300678979 278.94351184599134)"><path d="M82.6 -143.9C119.6 -121.8 170.6 -124.9 174.7 -105.1C178.8 -85.3 135.9 -42.7 108.8 -15.7C81.6 11.3 70.3 22.7 74.3 56.6C78.4 90.5 98 147 88.1 175.7C78.3 204.3 39.2 205.2 14 181C-11.3 156.8 -22.5 107.6 -34.3 80.1C-46.2 52.6 -58.6 46.8 -98 37.1C-137.3 27.3 -203.7 13.7 -226.3 -13.1C-249 -39.8 -228 -79.7 -195.8 -101.9C-163.7 -124.1 -120.3 -128.7 -85.8 -152.3C-51.3 -175.9 -25.7 -218.5 -1.4 -216C22.8 -213.5 45.7 -166.1 82.6 -143.9" fill="#36fdba"></path></g></svg>