<svg id="visual" viewBox="0 0 960 540" width="960" height="540" xmlns="http://www.w3.org/2000/svg" xmlns:xlink="http://www.w3.org/1999/xlink" version="1.1"><path d="M0 89L17.8 77.8C35.7 66.7 71.3 44.3 106.8 43.7C142.3 43 177.7 64 213.2 64C248.7 64 284.3 43 320 35.3C355.7 27.7 391.3 33.3 426.8 44.7C462.3 56 497.7 73 533.2 70.5C568.7 68 604.3 46 640 34.2C675.7 22.3 711.3 20.7 746.8 23.3C782.3 26 817.7 33 853.2 44.2C888.7 55.3 924.3 70.7 942.2 78.3L960 86L960 0L942.2 0C924.3 0 888.7 0 853.2 0C817.7 0 782.3 0 746.8 0C711.3 0 675.7 0 640 0C604.3 0 568.7 0 533.2 0C497.7 0 462.3 0 426.8 0C391.3 0 355.7 0 320 0C284.3 0 248.7 0 213.2 0C177.7 0 142.3 0 106.8 0C71.3 0 35.7 0 17.8 0L0 0Z" fill="#1ca7e3" stroke-linecap="round" stroke-linejoin="miter"></path></svg>