<svg id="visual" viewBox="0 0 960 100" width="960" height="100" xmlns="http://www.w3.org/2000/svg" xmlns:xlink="http://www.w3.org/1999/xlink" version="1.1"><path d="M0 53L20 47.7C40 42.3 80 31.7 120 37.5C160 43.3 200 65.7 240 65.2C280 64.7 320 41.3 360 40.8C400 40.3 440 62.7 480 66.7C520 70.7 560 56.3 600 54.3C640 52.3 680 62.7 720 70.3C760 78 800 83 840 80.3C880 77.7 920 67.3 940 62.2L960 57L960 0L940 0C920 0 880 0 840 0C800 0 760 0 720 0C680 0 640 0 600 0C560 0 520 0 480 0C440 0 400 0 360 0C320 0 280 0 240 0C200 0 160 0 120 0C80 0 40 0 20 0L0 0Z" fill="#1ca7e37b" stroke-linecap="round" stroke-linejoin="miter"></path></svg>